<?xml version="1.0" encoding="UTF-8"?>
<svg id="Layer_1" xmlns="http://www.w3.org/2000/svg" version="1.1" viewBox="0 0 800 800">
  <!-- Generator: Adobe Illustrator 29.0.0, SVG Export Plug-In . SVG Version: 2.1.0 Build 186)  -->
  <defs>
    <style>
      .st0 {
        fill: #fff;
      }

      .st1 {
        fill: red;
      }
    </style>
  </defs>
  <rect class="st0" x="283" y="283" width="284" height="272"/>
  <path class="st1" d="M744.2,410.3s0,112.7-14.4,166.8c-7.9,29.8-31.2,52.3-60.9,60.3-53.7,14.5-268.9,14.5-268.9,14.5,0,0-215.3,0-268.9-14.5-29.6-8-52.9-30.5-60.9-60.3-14.4-54-14.4-166.8-14.4-166.8,0,0,0-112.7,14.4-166.8,7.9-29.8,31.2-53.3,60.9-61.3,53.7-14.5,268.9-14.5,268.9-14.5,0,0,215.3,0,268.9,14.5,29.6,8,52.9,31.4,60.9,61.3,14.4,54,14.4,166.8,14.4,166.8ZM509.5,410.3l-179.9-102.4v204.7l179.9-102.3Z"/>
</svg>